<?xml version="1.0" encoding="utf-8"?>
<svg baseProfile="tiny-ps" version="1.2" viewBox="0 0 300 300" xmlns="http://www.w3.org/2000/svg">
  <title>C:\Users\Private\github\verbosely\assets\bimi-images\letters_of_letters_three_rows_black_background_bimi_template.svg</title>
  <!-- Generator: Adobe Illustrator 29.5.1, SVG Export Plug-In . SVG Version: 2.1.0 Build 141)  -->
  <rect width="300" height="300" fill="#231f20" />
  <g>
    <path d="M50.4,36.2l-3.3-9.3h2l2.4,6.9,2.3-6.9h2l-3.3,9.3h-2Z" fill="#fff" />
    <path d="M62.3,38.6h-2l-.8-2.1h-3.7l-.8,2.1h-2l3.6-9.3h2l3.7,9.3ZM58.9,34.9l-1.3-3.5-1.3,3.5h2.5Z" fill="#fff" />
    <path d="M108,38.5h-2l-.8-2.1h-3.7l-.8,2.1h-2l3.6-9.3h2l3.7,9.3ZM104.6,34.8l-1.3-3.5-1.3,3.5h2.5Z" fill="#fff" />
    <path d="M107.5,36.2l-3.3-9.3h2l2.4,6.9,2.3-6.9h2l-3.3,9.3h-2Z" fill="#fff" />
    <path d="M75.6,98.4v-9.3h2.8l1.7,6.3,1.7-6.3h2.8v9.3h-1.7v-7.3l-1.8,7.3h-1.8l-1.8-7.3v7.3h-1.7Z" fill="#fff" />
    <path d="M55.2,48.3v-9.3h1.9v3.7h3.7v-3.7h1.9v9.3h-1.9v-4.1h-3.7v4.1h-1.9Z" fill="#fff" />
    <path d="M58.8,55.1v-9.2h1.9v7.7h4.7v1.6h-6.6Z" fill="#fff" />
    <path d="M97.5,48.1v-9.3h1.9v3.7h3.7v-3.7h1.9v9.3h-1.9v-4.1h-3.7v4.1h-1.9Z" fill="#fff" />
    <path d="M99.6,46.2h1.9c0,1.3.2,6.6-.2,7.7-1,2.9-6.2,2.2-5.8-1.2l1.8-.2c-.2,1.4,1.2,2.2,2.1,1.3.5-.7.2-6.5.3-7.5Z" fill="#fff" />
    <path d="M62.5,67.1v-9.3c1.1,0,4.5,0,5.3.1,2.2.5,2.5,3.9.8,5.1-1.1.8-2.7.5-4.2.6v3.5h-1.9ZM64.4,59.4v2.6c4.5.6,4.5-3.3,0-2.6Z" fill="#fff" />
    <path d="M90.5,66v-1.7l4.9-6h-4.3v-1.6h6.8v1.5l-5.1,6.3h5.3v1.6h-7.6Z" fill="#fff" />
    <path d="M70.9,73.2l1.8.6c-1.2,5-8.7,3.3-8.1-1.7-.6-4.9,6.7-7,8.1-2.2l-1.9.4c-.9-2.9-4.8-1.4-4.3,1.6-.5,3.3,3.7,4.6,4.4,1.3Z" fill="#fff" />
    <path d="M91,73.5v-1.6h4.1v3.7c-4.2,3.9-11-.7-8.1-6,1.4-3,7.3-3.1,8,.5l-1.9.3c-5.2-6.4-7.3,8.6,0,4.1v-1.2h-2.2Z" fill="#fff" />
    <path d="M70.4,78.1c1.1,0,4.5,0,5.4,0,2.2.2,2.7,3.4.7,4.3,2.7.6,2.1,4.8-.6,4.9-.7,0-4.3,0-5.4,0v-9.3ZM72.3,79.6v2.2c1.3-.2,3.5.6,3.6-1.1,0-1.6-2.3-.9-3.6-1.1ZM72.3,83.3v2.5c1.3-.2,3.9.6,4-1.2,0-1.8-2.6-1.1-4-1.3Z" fill="#fff" />
    <path d="M82.6,78.4c3.7-.2,8.2-.2,7.8,4.7.4,4.7-4.4,4.8-7.8,4.6v-9.3ZM84.5,79.9v6.2c2.4.2,4.2-.2,4-3.1.3-2.7-1.6-3.3-4-3.1Z" fill="#fff" />
  </g>
  <g>
    <path d="M195.6,46.1v-9.3c1.3,0,5.1-.2,6.1.3,2.4,1,1.8,4.9-1,4.9,1.4.7,2.3,2.7,3.2,4.1h-2.2c-1.2-1.5-2-4.3-4.2-3.9v3.9h-1.9ZM197.5,40.8c1.4-.1,3.8.6,3.8-1.2,0-1.8-2.5-1-3.8-1.2v2.4Z" fill="#fff" />
    <path d="M195.6,67v-9.3c1.1,0,4.5,0,5.3.1,2.2.5,2.5,3.9.8,5.1-1.1.8-2.7.5-4.2.6v3.5h-1.9ZM197.5,59.3v2.6c4.5.6,4.5-3.3,0-2.6Z" fill="#fff" />
    <path d="M195.6,57.1v-9.2h1.9v7.7h4.7v1.6h-6.6Z" fill="#fff" />
    <path d="M195.6,68c3.7-.2,8.2-.2,7.8,4.7.4,4.7-4.4,4.8-7.8,4.6v-9.3ZM197.5,69.6v6.2c2.4.2,4.2-.2,4-3.1.3-2.7-1.6-3.3-4-3.1Z" fill="#fff" />
    <path d="M195.6,26.9c1.1,0,4.5,0,5.4,0,2.2.2,2.7,3.4.7,4.3,2.7.6,2.1,4.8-.6,4.9-.7,0-4.3,0-5.4,0v-9.3ZM197.5,28.4v2.2c1.3-.2,3.5.6,3.6-1.1,0-1.6-2.3-.9-3.6-1.1ZM197.5,32.1v2.5c1.3-.2,3.9.6,4-1.2,0-1.8-2.6-1.1-4-1.3Z" fill="#fff" />
    <path d="M195.6,87.8v-9.3h1.9v3.7h3.7v-3.7h1.9v9.3h-1.9v-4.1h-3.7v4.1h-1.9Z" fill="#fff" />
    <path d="M195.5,98.6v-9.3h1.9v9.3h-1.9Z" fill="#fff" />
    <path d="M225.7,36.1v-1.7l4.9-6h-4.3v-1.6h6.8v1.5l-5.1,6.3h5.3v1.6h-7.6Z" fill="#fff" />
    <path d="M224.7,36h-2l-.8-2.1h-3.7l-.8,2.1h-2l3.6-9.3h2l3.7,9.3ZM221.2,32.3l-1.3-3.5-1.3,3.5h2.5Z" fill="#fff" />
    <path d="M245.4,56.2v-9.3c1.1,0,4.5,0,5.3.1,2.2.5,2.5,3.9.8,5.1-1.1.8-2.7.5-4.2.6v3.5h-1.9ZM247.2,48.5v2.6c4.5.6,4.5-3.3,0-2.6Z" fill="#fff" />
    <path d="M211.2,32.6l1.8.6c-1.2,5-8.7,3.3-8.1-1.7-.6-4.9,6.7-7,8.1-2.2l-1.9.4c-.9-2.9-4.8-1.4-4.3,1.6-.5,3.3,3.7,4.6,4.4,1.3Z" fill="#fff" />
    <path d="M242.8,41.3c-.6-6.4,9.5-6.5,9,0,.5,6.3-9.5,6.3-9,0ZM244.8,41.3c-.4,4.2,5.6,4.2,5.2,0,.4-4.2-5.6-4.1-5.2,0Z" fill="#fff" />
    <path d="M242.4,35.9c.5.3,1,.6,1.5.8l-.7,1.3c-1-.3-.8-.3-2.1-1.2-5.1,2.4-8.7-4.3-5.4-8,4.6-4.3,10.6,2.5,6.7,7ZM240.9,34.9c2.2-2.6-.6-7.7-3.7-4.8-1.6,1.9-.5,6.6,2.6,5.5-.4-.2-.8-.4-1.2-.6l.5-1.1c.6.2,1.2.5,1.8,1Z" fill="#fff" />
    <path d="M206.9,67.5v-7.7h-2.8v-1.6h7.4v1.6h-2.8v7.7h-1.9Z" fill="#fff" />
    <path d="M212.8,68v-9.3h6.9v1.6h-5v2.1h4.7v1.6h-4.7v2.5h5.2v1.6h-7.1Z" fill="#fff" />
    <path d="M225.1,64.3v-1.6h4.1v3.7c-4.2,3.9-11-.7-8.1-6,1.4-3,7.3-3.1,8,.5l-1.9.3c-5.2-6.4-7.3,8.6,0,4.1v-1.2h-2.2Z" fill="#fff" />
    <path d="M234.3,57h1.9c0,1.3.2,6.6-.2,7.7-1,2.9-6.2,2.2-5.8-1.2l1.8-.2c-.2,1.4,1.2,2.2,2.1,1.3.5-.7.2-6.5.3-7.5Z" fill="#fff" />
    <path d="M237.4,60.3l1.8-.2c0,2.5,4.7,2.3,3.7,0-1.5-1.1-5.3-.9-5.2-3.6,0-3.7,7.1-3.4,7,.2h-1.9c0-1.6-3-1.8-3.3-.3.5,1.7,4.3,1,5.1,2.8,2.4,4.9-7.1,6.2-7.2,1.2Z" fill="#fff" />
    <path d="M245.7,98.4v-9.3h1.8l3.8,6.2v-6.2h1.7v9.3h-1.9l-3.8-6.1v6.1h-1.7Z" fill="#fff" />
    <path d="M240.9,89.7v-9.3c1.3,0,5.1-.2,6.1.3,2.4,1,1.8,4.9-1,4.9,1.4.7,2.3,2.7,3.2,4.1h-2.2c-1.2-1.5-2-4.3-4.2-3.9v3.9h-1.9ZM242.8,84.3c1.4-.1,3.8.6,3.8-1.2,0-1.8-2.5-1-3.8-1.2v2.4Z" fill="#fff" />
    <path d="M244,79.7h-2l-.8-2.1h-3.7l-.8,2.1h-2l3.6-9.3h2l3.7,9.3ZM240.5,76l-1.3-3.5-1.3,3.5h2.5Z" fill="#fff" />
    <path d="M231.6,77l-3.3-9.3h2l2.4,6.9,2.3-6.9h2l-3.3,9.3h-2Z" fill="#fff" />
  </g>
  <g>
    <path d="M55.9,153.5v-9.3h1.9v3.7h3.7v-3.7h1.9v9.3h-1.9v-4.1h-3.7v4.1h-1.9Z" fill="#fff" />
    <path d="M55.9,184.9v-9.3h6.4v1.6h-4.5v2.2h3.9v1.6h-3.9v4h-1.9Z" fill="#fff" />
    <path d="M55.9,122.5v-9.3c1.1,0,4.5,0,5.3.1,2.2.5,2.5,3.9.8,5.1-1.1.8-2.7.5-4.2.6v3.5h-1.9ZM57.7,114.7v2.6c4.5.6,4.5-3.3,0-2.6Z" fill="#fff" />
    <path d="M55.8,164.7c3.7-.2,8.2-.2,7.8,4.7.4,4.7-4.4,4.8-7.8,4.6v-9.3ZM57.7,166.3v6.2c2.4.2,4.2-.2,4-3.1.3-2.7-1.6-3.3-4-3.1Z" fill="#fff" />
    <path d="M55.8,123.5h1.9c.5,2-1.4,8,1.9,7.9,3.1.2,1.3-6,1.8-7.9h1.9c-.3,3.2,1.5,9.9-3.6,9.5-5.3.5-3.5-6.2-3.8-9.5Z" fill="#fff" />
    <path d="M55.8,163.6v-9.3h2.8l1.7,6.3,1.7-6.3h2.8v9.3h-1.7v-7.3l-1.8,7.3h-1.8l-1.8-7.3v7.3h-1.7Z" fill="#fff" />
    <path d="M55.9,133.6c1.1,0,4.5,0,5.4,0,2.2.2,2.7,3.4.7,4.3,2.7.6,2.1,4.8-.6,4.9-.7,0-4.3,0-5.4,0v-9.3ZM57.7,135.2v2.2c1.3-.2,3.5.6,3.6-1.1,0-1.6-2.3-.9-3.6-1.1ZM57.7,138.9v2.5c1.3-.2,3.9.6,4-1.2,0-1.8-2.6-1.1-4-1.3Z" fill="#fff" />
    <path d="M76.2,122.5v-7.7h-2.8v-1.6h7.4v1.6h-2.8v7.7h-1.9Z" fill="#fff" />
    <path d="M87.7,142.4h1.9c0,1.3.2,6.6-.2,7.7-1,2.9-6.2,2.2-5.8-1.2l1.8-.2c-.2,1.4,1.2,2.2,2.1,1.3.5-.7.2-6.5.3-7.5Z" fill="#fff" />
    <path d="M90.2,138.9c3.7-.2,8.2-.2,7.8,4.7.4,4.7-4.4,4.8-7.8,4.6v-9.3ZM92.1,140.5v6.2c2.4.2,4.2-.2,4-3.1.3-2.7-1.6-3.3-4-3.1Z" fill="#fff" />
    <path d="M104.3,140.6c.5.3,1,.6,1.5.8l-.7,1.3c-1-.3-.8-.3-2.1-1.2-5.1,2.4-8.7-4.3-5.4-8,4.6-4.3,10.6,2.5,6.7,7ZM102.8,139.6c2.2-2.6-.6-7.7-3.7-4.8-1.6,1.9-.5,6.6,2.6,5.5-.4-.2-.8-.4-1.2-.6l.5-1.1c.6.2,1.2.5,1.8,1Z" fill="#fff" />
    <path d="M96.8,127.4c-.6-6.4,9.5-6.5,9,0,.5,6.3-9.5,6.3-9,0ZM98.7,127.3c-.4,4.2,5.6,4.2,5.2,0,.4-4.2-5.6-4.1-5.2,0Z" fill="#fff" />
    <path d="M90.8,121.6l1.8-.2c0,2.5,4.7,2.3,3.7,0-1.5-1.1-5.3-.9-5.2-3.6,0-3.7,7.1-3.4,7,.2h-1.9c0-1.6-3-1.8-3.3-.3.5,1.7,4.3,1,5.1,2.8,2.4,4.9-7.1,6.2-7.2,1.2Z" fill="#fff" />
    <path d="M82.3,122.8l3.2-4.9-2.9-4.4h2.2l1.9,3,1.8-3h2.2l-2.9,4.5,3.2,4.8h-2.3l-2.1-3.2-2.1,3.2h-2.3Z" fill="#fff" />
    <path d="M95.7,172c1.1,0,4.5,0,5.4,0,2.2.2,2.7,3.4.7,4.3,2.7.6,2.1,4.8-.6,4.9-.7,0-4.3,0-5.4,0v-9.3ZM97.6,173.5v2.2c1.3-.2,3.5.6,3.6-1.1,0-1.6-2.3-.9-3.6-1.1ZM97.6,177.2v2.5c1.3-.2,3.9.6,4-1.2,0-1.8-2.6-1.1-4-1.3Z" fill="#fff" />
    <path d="M66.8,153v-3.9l-3.4-5.4h2.2l2.2,3.7,2.1-3.7h2.2l-3.4,5.4v3.9h-1.9Z" fill="#fff" />
    <path d="M74.9,153l-2.2-9.3h1.9l1.4,6.4,1.7-6.4h2.2l1.6,6.5,1.4-6.5h1.9l-2.3,9.3h-2l-1.9-7-1.8,7h-2Z" fill="#fff" />
    <path d="M64.8,122.5v-9.3c1.3,0,5.1-.2,6.1.3,2.4,1,1.8,4.9-1,4.9,1.4.7,2.3,2.7,3.2,4.1h-2.2c-1.2-1.5-2-4.3-4.2-3.9v3.9h-1.9ZM66.7,117.1c1.4-.1,3.8.6,3.8-1.2,0-1.8-2.5-1-3.8-1.2v2.4Z" fill="#fff" />
    <path d="M99.9,153.6l1.8.6c-1.2,5-8.7,3.3-8.1-1.7-.6-4.9,6.7-7,8.1-2.2l-1.9.4c-.9-2.9-4.8-1.4-4.3,1.6-.5,3.3,3.7,4.6,4.4,1.3Z" fill="#fff" />
    <path d="M62.6,184.7v-9.2h1.9v7.7h4.7v1.6h-6.6Z" fill="#fff" />
    <path d="M77.8,185.2v-9.3h2.8l1.7,6.3,1.7-6.3h2.8v9.3h-1.7v-7.3l-1.8,7.3h-1.8l-1.8-7.3v7.3h-1.7Z" fill="#fff" />
    <path d="M100.2,169c-.6-6.4,9.5-6.5,9,0,.5,6.3-9.5,6.3-9,0ZM102.1,168.9c-.4,4.2,5.6,4.2,5.2,0,.4-4.2-5.6-4.1-5.2,0Z" fill="#fff" />
    <path d="M87.6,175.3h1.9c.5,2-1.4,8,1.9,7.9,3.1.2,1.3-6,1.8-7.9h1.9c-.3,3.2,1.5,9.9-3.6,9.5-5.3.5-3.5-6.2-3.8-9.5Z" fill="#fff" />
    <path d="M101.1,160.3l1.8-.2c0,3.2,6.1,1.4,3-.5-.7-.2-3.2-.8-3.6-1.3-3.9-4.3,6.1-6.6,6.1-1.7h-1.9c0-1.6-3-1.8-3.3-.3.5,1.7,4.3,1,5.1,2.8,2.4,4.9-7.1,6.2-7.2,1.2Z" fill="#fff" />
    <path d="M72.5,182v-1.6h4.1v3.7c-4.2,3.9-11-.7-8.1-6,1.4-3,7.3-3.1,8,.5l-1.9.3c-5.2-6.4-7.3,8.6,0,4.1v-1.2h-2.2Z" fill="#fff" />
  </g>
  <g>
    <path d="M147.8,120.5l1.8.6c-1.2,5-8.6,3.3-8.1-1.7-.6-4.9,6.7-7,8.1-2.2l-1.9.4c-.9-2.9-4.8-1.4-4.3,1.6-.5,3.3,3.7,4.6,4.3,1.3Z" fill="#fff" />
    <path d="M125,129.4c-.6-6.4,9.5-6.5,9,0,.5,6.3-9.5,6.3-9,0ZM126.9,129.3c-.4,4.2,5.6,4.2,5.1,0,.4-4.2-5.6-4.1-5.1,0Z" fill="#fff" />
    <path d="M128.8,143.1h-2l-.8-2.1h-3.7l-.8,2.1h-2l3.6-9.3h2l3.7,9.3ZM125.4,139.4l-1.3-3.5-1.3,3.5h2.5Z" fill="#fff" />
    <path d="M127,152.9c.5.3,1,.6,1.5.8l-.7,1.3c-1-.3-.8-.3-2.1-1.2-5.1,2.4-8.7-4.3-5.4-8,4.6-4.3,10.5,2.5,6.7,7ZM125.5,151.8c2.2-2.6-.6-7.7-3.7-4.8-1.6,1.9-.5,6.6,2.6,5.5-.4-.2-.8-.4-1.2-.6l.5-1.1c.6.2,1.2.5,1.8,1Z" fill="#fff" />
    <path d="M120.2,162.1l1.8-.2c0,2.5,4.7,2.3,3.7,0-1.5-1.1-5.3-.9-5.2-3.6,0-3.7,7.1-3.4,7,.2h-1.9c0-1.6-3-1.8-3.3-.3.5,1.7,4.3,1,5.1,2.8,2.4,4.9-7.1,6.2-7.2,1.2Z" fill="#fff" />
    <path d="M125,171.2c-.6-6.4,9.5-6.5,9,0,.5,6.3-9.5,6.3-9,0ZM126.9,171.1c-.4,4.2,5.6,4.2,5.1,0,.4-4.2-5.6-4.1-5.1,0Z" fill="#fff" />
    <path d="M135.5,171.9h1.9c0,1.3.2,6.6-.2,7.7-1,2.9-6.2,2.2-5.8-1.2l1.8-.2c-.2,1.4,1.2,2.2,2.1,1.3.5-.7.2-6.5.3-7.5Z" fill="#fff" />
    <path d="M165.2,180.2l1.8-.2c0,2.5,4.7,2.3,3.7,0-1.5-1.1-5.3-.9-5.2-3.6,0-3.7,7.1-3.4,7,.2h-1.9c0-1.6-3-1.8-3.3-.3.5,1.7,4.3,1,5.1,2.8,2.4,4.9-7.1,6.2-7.2,1.2Z" fill="#fff" />
    <path d="M147.4,184.6l1.8-.2c0,2.5,4.7,2.3,3.7,0-1.5-1.1-5.3-.9-5.2-3.6,0-3.7,7.1-3.4,7,.2h-1.9c0-1.6-3-1.8-3.3-.3.5,1.7,4.3,1,5.1,2.8,2.4,4.9-7.1,6.2-7.2,1.2Z" fill="#fff" />
    <path d="M156.8,177.4h1.9c.5,2-1.4,8,1.9,7.9,3.1.2,1.3-6,1.8-7.9h1.9c-.3,3.2,1.5,9.9-3.6,9.5-5.3.5-3.5-6.2-3.8-9.5Z" fill="#fff" />
    <path d="M139.1,185v-9.3h6.9v1.6h-5v2.1h4.7v1.6h-4.7v2.5h5.2v1.6h-7.1Z" fill="#fff" />
    <path d="M171.9,172.4c-.6-6.4,9.5-6.5,9,0,.5,6.3-9.5,6.3-9,0ZM173.8,172.4c-.4,4.2,5.6,4.2,5.1,0,.4-4.2-5.6-4.1-5.1,0Z" fill="#fff" />
    <path d="M182.9,160h1.9c0,1.3.2,6.6-.2,7.7-1,2.9-6.2,2.2-5.8-1.2l1.8-.2c-.2,1.4,1.2,2.2,2,1.3.5-.7.2-6.5.3-7.5Z" fill="#fff" />
    <path d="M180,162.7v-9.3c1.1,0,4.5,0,5.2.1,2.2.5,2.5,3.9.8,5.1-1.1.8-2.7.5-4.1.6v3.5h-1.9ZM181.9,154.9v2.6c4.5.6,4.5-3.3,0-2.6Z" fill="#fff" />
    <path d="M179.7,142.4c1.1,0,4.5,0,5.4,0,2.2.2,2.7,3.4.7,4.3,2.7.6,2.1,4.8-.6,4.9-.7,0-4.3,0-5.4,0v-9.3ZM181.6,143.9v2.2c1.3-.2,3.5.6,3.6-1.1,0-1.6-2.3-.9-3.6-1.1ZM181.6,147.6v2.5c1.3-.2,3.9.6,4-1.2,0-1.8-2.6-1.1-4-1.3Z" fill="#fff" />
    <path d="M176.4,137l1.8-.2c0,2.5,4.7,2.3,3.7,0-1.5-1.1-5.3-.9-5.2-3.6,0-3.7,7.1-3.4,7,.2h-1.9c0-1.6-3-1.8-3.3-.3.5,1.7,4.3,1,5.1,2.8,2.4,4.9-7.1,6.2-7.2,1.2Z" fill="#fff" />
    <path d="M171,122.3c3.7-.2,8.2-.2,7.8,4.7.4,4.7-4.4,4.8-7.8,4.6v-9.3ZM172.9,123.9v6.2c2.4.2,4.2-.2,4-3.1.3-2.7-1.6-3.3-4-3.1Z" fill="#fff" />
    <path d="M162.6,126v-9.3c1.3,0,5.1-.2,6.1.3,2.4,1,1.8,4.9-1,4.9,1.4.7,2.3,2.7,3.2,4.1h-2.2c-1.2-1.5-2-4.3-4.2-3.9v3.9h-1.9ZM164.5,120.7c1.4-.1,3.8.6,3.8-1.2,0-1.8-2.5-1-3.8-1.2v2.4Z" fill="#fff" />
    <path d="M158.6,121.9c.5.3,1,.6,1.5.8l-.7,1.3c-1-.3-.8-.3-2.1-1.2-5.1,2.4-8.7-4.3-5.4-8,4.6-4.3,10.5,2.5,6.7,7ZM157.1,120.8c2.2-2.6-.6-7.7-3.7-4.8-1.6,1.9-.5,6.6,2.6,5.5-.4-.2-.8-.4-1.2-.6l.5-1.1c.6.2,1.2.5,1.8,1Z" fill="#fff" />
    <path d="M136,128.5v-3.9l-3.4-5.4h2.2l2.2,3.7,2.1-3.7h2.2l-3.4,5.4v3.9h-1.9Z" fill="#fff" />
  </g>
  <g>
    <path d="M209.5,150v-9.3h1.9v3.7h3.7v-3.7h1.9v9.3h-1.9v-4.1h-3.7v4.1h-1.9Z" fill="#fff" />
    <path d="M196.8,172.3v-9.3h1.8l3.8,6.2v-6.2h1.7v9.3h-1.9l-3.8-6.1v6.1h-1.7Z" fill="#fff" />
    <path d="M202.9,181.6v-3.9l-3.4-5.4h2.2l2.2,3.7,2.1-3.7h2.2l-3.4,5.4v3.9h-1.9Z" fill="#fff" />
    <path d="M211.6,175.6h1.9c0,1.3.2,6.6-.2,7.7-1,2.9-6.2,2.2-5.8-1.2l1.8-.2c-.2,1.4,1.2,2.2,2.1,1.3.5-.7.2-6.5.3-7.5Z" fill="#fff" />
    <path d="M215.7,184.3l1.8-.2c0,2.5,4.7,2.3,3.7,0-1.5-1.1-5.3-.9-5.2-3.6,0-3.7,7.1-3.4,7,.2h-1.9c0-1.6-3-1.8-3.3-.3.5,1.7,4.3,1,5.1,2.8,2.4,4.9-7.1,6.2-7.2,1.2Z" fill="#fff" />
    <path d="M225.4,178.1h1.9c.5,2-1.4,8,1.9,7.9,3.1.2,1.3-6,1.8-7.9h1.9c-.3,3.2,1.5,9.9-3.6,9.5-5.3.5-3.5-6.2-3.8-9.5Z" fill="#fff" />
    <path d="M243.5,165.1c3.7-.2,8.2-.2,7.8,4.7.4,4.7-4.4,4.8-7.8,4.6v-9.3ZM245.3,166.6v6.2c2.4.2,4.2-.2,4-3.1.3-2.7-1.6-3.3-4-3.1Z" fill="#fff" />
    <path d="M242.1,153.8c1.1,0,4.5,0,5.4,0,2.2.2,2.7,3.4.7,4.3,2.7.6,2.1,4.8-.6,4.9-.7,0-4.3,0-5.4,0v-9.3ZM244,155.3v2.2c1.3-.2,3.5.6,3.6-1.1,0-1.6-2.3-.9-3.6-1.1ZM244,159v2.5c1.3-.2,3.9.6,4-1.2,0-1.8-2.6-1.1-4-1.3Z" fill="#fff" />
    <path d="M242.3,157.2h-2l-.8-2.1h-3.7l-.8,2.1h-2l3.6-9.3h2l3.7,9.3ZM238.8,153.5l-1.3-3.5-1.3,3.5h2.5Z" fill="#fff" />
    <path d="M228.3,155.7l-3.3-9.3h2l2.4,6.9,2.3-6.9h2l-3.3,9.3h-2Z" fill="#fff" />
    <path d="M220.1,153v-9.2h1.9v7.7h4.7v1.6h-6.6Z" fill="#fff" />
    <path d="M207.8,138.2h1.9c0,1.3.2,6.6-.2,7.7-1,2.9-6.2,2.2-5.8-1.2l1.8-.2c-.2,1.4,1.2,2.2,2.1,1.3.5-.7.2-6.5.3-7.5Z" fill="#fff" />
    <path d="M240.5,135v-9.3c1.3,0,5.1-.2,6.1.3,2.4,1,1.8,4.9-1,4.9,1.4.7,2.3,2.7,3.2,4.1h-2.2c-1.2-1.5-2-4.3-4.2-3.9v3.9h-1.9ZM242.4,129.6c1.4-.1,3.8.6,3.8-1.2,0-1.8-2.5-1-3.8-1.2v2.4Z" fill="#fff" />
    <path d="M202.4,138v-1.6h4v3.7c-4.2,3.9-11-.7-8.1-6,1.4-3,7.3-3.1,8,.5l-1.9.3c-5.2-6.4-7.3,8.6,0,4.1v-1.2h-2.2Z" fill="#fff" />
    <path d="M207.3,130.3c.5.3,1,.6,1.5.8l-.7,1.3c-1-.3-.8-.3-2.1-1.2-5.1,2.4-8.7-4.3-5.4-8,4.6-4.3,10.5,2.5,6.7,7ZM205.8,129.3c2.2-2.6-.6-7.7-3.7-4.8-1.6,1.9-.5,6.6,2.6,5.5-.4-.2-.8-.4-1.2-.6l.5-1.1c.6.2,1.2.5,1.8,1Z" fill="#fff" />
    <path d="M213.4,121.4l1.8.6c-1.2,5-8.6,3.3-8.1-1.7-.6-4.9,6.7-7,8.1-2.2l-1.9.4c-.9-2.9-4.8-1.4-4.3,1.6-.5,3.3,3.7,4.6,4.3,1.3Z" fill="#fff" />
    <path d="M215.9,118.3c-.6-6.4,9.5-6.5,9,0,.5,6.3-9.5,6.3-9,0ZM217.9,118.3c-.4,4.2,5.6,4.2,5.1,0,.4-4.2-5.6-4.1-5.1,0Z" fill="#fff" />
    <path d="M225.6,113.8c1.1,0,4.5,0,5.4,0,2.2.2,2.7,3.4.7,4.3,2.7.6,2.1,4.8-.6,4.9-.7,0-4.3,0-5.4,0v-9.3ZM227.5,115.4v2.2c1.3-.2,3.5.6,3.6-1.1,0-1.6-2.3-.9-3.6-1.1ZM227.5,119.1v2.5c1.3-.2,3.9.6,4-1.2,0-1.8-2.6-1.1-4-1.3Z" fill="#fff" />
    <path d="M233.5,123.4l1.8-.2c0,2.5,4.7,2.3,3.7,0-1.5-1.1-5.3-.9-5.2-3.6,0-3.7,7.1-3.4,7,.2h-1.9c0-1.6-3-1.8-3.3-.3.5,1.7,4.3,1,5.1,2.8,2.4,4.9-7.1,6.2-7.2,1.2Z" fill="#fff" />
    <path d="M236.1,184.2v-9.3h6.9v1.6h-5v2.1h4.7v1.6h-4.7v2.5h5.2v1.6h-7.1Z" fill="#fff" />
  </g>
  <g>
    <path d="M101.6,270.2l1.8-.2c0,2.5,4.7,2.3,3.7,0-1.5-1.1-5.3-.9-5.2-3.6,0-3.7,7.1-3.4,7,.2h-1.9c0-1.6-3-1.8-3.3-.3.5,1.7,4.3,1,5.1,2.8,2.4,4.9-7.1,6.2-7.2,1.2Z" fill="#fff" />
    <path d="M98,272.1c.5.3,1,.6,1.5.8l-.7,1.3c-1-.3-.8-.3-2.1-1.2-5.1,2.4-8.7-4.3-5.4-8,4.6-4.3,10.5,2.5,6.7,7ZM96.5,271c2.2-2.6-.6-7.7-3.7-4.8-1.6,1.9-.5,6.6,2.6,5.5-.4-.2-.8-.4-1.2-.6l.5-1.1c.6.2,1.2.5,1.8,1Z" fill="#fff" />
    <path d="M84,273.2v-9.2h1.9v7.7h4.7v1.6h-6.6Z" fill="#fff" />
    <path d="M78.2,263.9h1.9c0,1.3.2,6.6-.2,7.7-1,2.9-6.2,2.2-5.8-1.2l1.8-.2c-.2,1.4,1.2,2.2,2.1,1.3.5-.7.2-6.5.3-7.5Z" fill="#fff" />
    <path d="M68.1,273.2v-7.7h-2.8v-1.6h7.4v1.6h-2.8v7.7h-1.9Z" fill="#fff" />
    <path d="M97.1,231.6c3.7-.2,8.2-.2,7.8,4.7.4,4.7-4.4,4.8-7.8,4.6v-9.3ZM99,233.2v6.2c2.4.2,4.2-.2,4-3.1.3-2.7-1.6-3.3-4-3.1Z" fill="#fff" />
    <path d="M86.7,240.9v-9.3h1.8l3.8,6.2v-6.2h1.7v9.3h-1.9l-3.8-6.1v6.1h-1.7Z" fill="#fff" />
    <path d="M76,240.9v-1.7l4.9-6h-4.3v-1.6h6.8v1.5l-5.1,6.3h5.3v1.6h-7.6Z" fill="#fff" />
    <path d="M66.4,231.6c1.1,0,4.5,0,5.4,0,2.2.2,2.7,3.4.7,4.3,2.7.6,2.1,4.8-.6,4.9-.7,0-4.3,0-5.4,0v-9.3ZM68.3,233.2v2.2c1.3-.2,3.5.6,3.6-1.1,0-1.6-2.3-.9-3.6-1.1ZM68.3,236.9v2.5c1.3-.2,3.9.6,4-1.2,0-1.8-2.6-1.1-4-1.3Z" fill="#fff" />
    <path d="M55.7,273.2v-9.3c1.3,0,5.1-.2,6.1.3,2.4,1,1.8,4.9-1,4.9,1.4.7,2.3,2.7,3.2,4.1h-2.2c-1.2-1.5-2-4.3-4.2-3.9v3.9h-1.9ZM57.6,267.9c1.4-.1,3.8.6,3.8-1.2,0-1.8-2.5-1-3.8-1.2v2.4Z" fill="#fff" />
    <path d="M55.7,242.4h1.9c.5,2-1.4,8,1.9,7.9,3.1.2,1.3-6,1.8-7.9h1.9c-.3,3.2,1.5,9.9-3.6,9.5-5.3.5-3.5-6.2-3.8-9.5Z" fill="#fff" />
    <path d="M55.8,240.8v-9.3h1.9v4.1l3.8-4.1h2.5l-3.5,3.6,3.7,5.7h-2.4l-2.6-4.4-1.5,1.6v2.8h-1.9Z" fill="#fff" />
    <path d="M55.7,230.8v-9.3h2.8l1.7,6.3,1.7-6.3h2.8v9.3h-1.7v-7.3l-1.8,7.3h-1.8l-1.8-7.3v7.3h-1.7Z" fill="#fff" />
    <path d="M55.7,220.6v-9.3h6.4v1.6h-4.5v2.2h3.9v1.6h-3.9v4h-1.9Z" fill="#fff" />
    <path d="M105.9,210.6v-9.3h1.9v9.3h-1.9Z" fill="#fff" />
    <path d="M95.1,210.6v-9.3h1.9v3.7h3.7v-3.7h1.9v9.3h-1.9v-4.1h-3.7v4.1h-1.9Z" fill="#fff" />
    <path d="M84.6,210.6v-9.3h6.9v1.6h-5v2.1h4.7v1.6h-4.7v2.5h5.2v1.6h-7.1Z" fill="#fff" />
    <path d="M82.3,210.6h-2l-.8-2.1h-3.7l-.8,2.1h-2l3.6-9.3h2l3.7,9.3ZM78.9,206.9l-1.3-3.5-1.3,3.5h2.5Z" fill="#fff" />
    <path d="M67.3,210.6v-7.7h-2.8v-1.6h7.4v1.6h-2.8v7.7h-1.9Z" fill="#fff" />
    <path d="M55.7,210.6v-9.3c1.1,0,4.5,0,5.2.1,2.2.5,2.5,3.9.8,5.1-1.1.8-2.7.5-4.1.6v3.5h-1.9ZM57.6,202.9v2.6c4.5.6,4.5-3.3,0-2.6Z" fill="#fff" />
    <path d="M55.3,262.6l3.2-4.9-2.9-4.5h2.2l1.9,3,1.8-3h2.2l-2.9,4.5,3.2,4.8h-2.3l-2.1-3.2-2.1,3.2h-2.3Z" fill="#fff" />
  </g>
  <g>
    <path d="M195.6,210.8l-3.3-9.3h2l2.4,6.9,2.3-6.9h2l-3.3,9.3h-2Z" fill="#fff" />
    <path d="M222.7,268.9v-3.9l-3.4-5.4h2.2l2.2,3.7,2.1-3.7h2.2l-3.4,5.4v3.9h-1.9Z" fill="#fff" />
    <path d="M219.8,263.6h1.9c.5,2-1.4,8,1.9,7.9,3.1.2,1.3-6,1.8-7.9h1.9c-.3,3.2,1.5,9.9-3.6,9.5-5.3.5-3.5-6.2-3.8-9.5Z" fill="#fff" />
    <path d="M215,236.4l1.8-.2c0,2.5,4.7,2.3,3.7,0-1.5-1.1-5.3-.9-5.2-3.6,0-3.7,7.1-3.4,7,.2h-1.9c0-1.6-3-1.8-3.3-.3.5,1.7,4.3,1,5.1,2.8,2.4,4.9-7.1,6.2-7.2,1.2Z" fill="#fff" />
    <path d="M238.5,213h1.9c0,1.3.2,6.6-.2,7.7-1,2.9-6.2,2.2-5.8-1.2l1.8-.2c-.2,1.4,1.2,2.2,2.1,1.3.5-.7.2-6.5.3-7.5Z" fill="#fff" />
    <path d="M219.8,258.9v-9.3h1.9v3.7h3.7v-3.7h1.9v9.3h-1.9v-4.1h-3.7v4.1h-1.9Z" fill="#fff" />
    <path d="M203.1,219.7v-9.3h1.9v9.3h-1.9Z" fill="#fff" />
    <path d="M234.4,231.6l-3.3-9.3h2l2.4,6.9,2.3-6.9h2l-3.3,9.3h-2Z" fill="#fff" />
    <path d="M208,221v-9.2h1.9v7.7h4.7v1.6h-6.6Z" fill="#fff" />
    <path d="M250.7,210.4l-3.3-9.3h2l2.4,6.9,2.3-6.9h2l-3.3,9.3h-2Z" fill="#fff" />
    <path d="M250.4,211.8h-2l-.8-2.1h-3.7l-.8,2.1h-2l3.6-9.3h2l3.7,9.3ZM247,208.2l-1.3-3.5-1.3,3.5h2.5Z" fill="#fff" />
    <path d="M208,212.5h-2l-.8-2.1h-3.7l-.8,2.1h-2l3.6-9.3h2l3.7,9.3ZM204.5,208.8l-1.3-3.5-1.3,3.5h2.5Z" fill="#fff" />
    <path d="M243.4,219.1v-9.3h1.9v9.3h-1.9Z" fill="#fff" />
    <path d="M220,249.2l-2.2-9.3h1.9l1.4,6.4,1.7-6.4h2.2l1.6,6.5,1.4-6.5h1.9l-2.3,9.3h-2l-1.9-7-1.8,7h-2Z" fill="#fff" />
    <path d="M229.2,239.2v-7.7h-2.8v-1.6h7.4v1.6h-2.8v7.7h-1.9Z" fill="#fff" />
    <path d="M209.2,230.6v-9.3h1.8l3.8,6.2v-6.2h1.7v9.3h-1.9l-3.8-6.1v6.1h-1.7Z" fill="#fff" />
  </g>
  <g>
    <path d="M166.5,273.2v-9.3h6.4v1.6h-4.5v2.2h3.9v1.6h-3.9v4h-1.9Z" fill="#fff" />
    <path d="M157.4,273.2v-9.3h1.8l3.8,6.2v-6.2h1.7v9.3h-1.9l-3.8-6.1v6.1h-1.7Z" fill="#fff" />
    <path d="M144,273.2v-7.7h-2.8v-1.6h7.4v1.6h-2.8v7.7h-1.9Z" fill="#fff" />
    <path d="M149.5,263.9h1.9c.5,2-1.4,8,1.9,7.9,3.1.2,1.3-6,1.8-7.9h1.9c-.3,3.2,1.5,9.9-3.6,9.5-5.3.5-3.5-6.2-3.8-9.5Z" fill="#fff" />
    <path d="M132,273.2v-9.3h6.9v1.6h-5v2.1h4.7v1.6h-4.7v2.5h5.2v1.6h-7.1Z" fill="#fff" />
    <path d="M132,262.5v-9.3h2.8l1.7,6.3,1.7-6.3h2.8v9.3h-1.7v-7.3l-1.8,7.3h-1.8l-1.8-7.3v7.3h-1.7Z" fill="#fff" />
    <path d="M131.9,242.5v-9.3h1.9v9.3h-1.9Z" fill="#fff" />
    <path d="M132,232v-9.3c1.3,0,5.1-.2,6.1.3,2.4,1,1.8,4.9-1,4.9,1.4.7,2.3,2.7,3.2,4.1h-2.2c-1.2-1.5-2-4.3-4.2-3.9v3.9h-1.9ZM133.9,226.6c1.4-.1,3.8.6,3.8-1.2,0-1.8-2.5-1-3.8-1.2v2.4Z" fill="#fff" />
    <path d="M132,221.6v-9.2h1.9v7.7h4.7v1.6h-6.6Z" fill="#fff" />
    <path d="M132,211.1v-9.3h1.9v3.7h3.7v-3.7h1.9v9.3h-1.9v-4.1h-3.7v4.1h-1.9Z" fill="#fff" />
    <path d="M132,252.2v-9.3c1.1,0,4.5,0,5.2.1,2.2.5,2.5,3.9.8,5.1-1.1.8-2.7.5-4.1.6v3.5h-1.9ZM133.9,244.4v2.6c4.5.6,4.5-3.3,0-2.6Z" fill="#fff" />
    <path d="M174.8,273.2v-9.3h1.9v9.3h-1.9Z" fill="#fff" />
  </g>
  <g>
    <path d="M127,36.3v-9.3h6.9v1.6h-5v2.1h4.7v1.6h-4.7v2.5h5.2v1.6h-7.1Z" fill="#fff" />
    <path d="M140.1,36.3v-7.7h-2.8v-1.6h7.4v1.6h-2.8v7.7h-1.9Z" fill="#fff" />
    <path d="M147.6,36.3l3.2-4.9-2.9-4.4h2.2l1.9,3,1.8-3h2.2l-2.9,4.5,3.2,4.8h-2.3l-2.1-3.2-2.1,3.2h-2.3Z" fill="#fff" />
    <path d="M158.8,31.7c-.6-6.4,9.5-6.5,9,0,.5,6.3-9.5,6.3-9,0ZM160.8,31.7c.4,6.4,7.7,1.9,4.5-2.4-1.8-1.8-4.8-.3-4.5,2.4Z" fill="#fff" />
    <path d="M170.5,33.3l1.8-.2c0,3.2,6.1,1.4,3-.5-.7-.2-3.2-.8-3.6-1.3-3.9-4.3,6.1-6.6,6.1-1.7h-1.9c0-1.6-3-1.8-3.3-.3.5,1.7,4.3,1,5.1,2.8,2.4,4.9-7.1,6.2-7.2,1.2Z" fill="#fff" />
    <path d="M127,46.4v-9.3h1.9v9.3h-1.9Z" fill="#fff" />
    <path d="M127,57.1v-9.3h1.9v4.1l3.8-4.1h2.5l-3.5,3.6,3.7,5.7h-2.4l-2.6-4.4-1.5,1.6v2.8h-1.9Z" fill="#fff" />
    <path d="M127,68.1v-9.3h6.4v1.6h-4.5v2.2h3.9v1.6h-3.9v4h-1.9Z" fill="#fff" />
    <path d="M127,78.2v-9.3h1.8l3.8,6.2v-6.2h1.7v9.3h-1.9l-3.8-6.1v6.1h-1.7Z" fill="#fff" />
    <path d="M127,98.7v-9.3c1.3,0,5.1-.2,6.1.3,2.4,1,1.8,4.9-1,4.9,1.4.7,2.3,2.7,3.2,4.1h-2.2c-1.2-1.5-2-4.3-4.2-3.9v3.9h-1.9ZM128.9,93.3c1.4-.1,3.8.6,3.8-1.2,0-1.8-2.5-1-3.8-1.2v2.4Z" fill="#fff" />
    <path d="M144,65.4c.5.3,1,.6,1.5.8l-.7,1.3c-1-.3-.8-.3-2.1-1.2-5.1,2.4-8.7-4.3-5.4-8,4.6-4.3,10.6,2.5,6.7,7ZM142.4,64.3c2.2-2.6-.6-7.7-3.7-4.8-1.6,1.9-.5,6.6,2.6,5.5-.4-.2-.8-.4-1.2-.6l.5-1.1c.6.2,1.2.5,1.8,1Z" fill="#fff" />
    <path d="M148.1,66.5l-2.2-9.3h1.9l1.4,6.4,1.7-6.4h2.2l1.6,6.5,1.4-6.5h1.9l-2.3,9.3h-2l-1.9-7-1.9,7h-2Z" fill="#fff" />
    <path d="M162.7,66.5v-3.9l-3.4-5.4h2.2l2.2,3.7,2.1-3.7h2.2l-3.4,5.4v3.9h-1.9Z" fill="#fff" />
    <path d="M168.8,57.2h1.9c.5,2-1.4,8,1.9,7.9,3.1.2,1.3-6,1.8-7.9h1.9c-.3,3.2,1.5,9.9-3.6,9.5-5.3.5-3.5-6.2-3.8-9.5Z" fill="#fff" />
    <path d="M137.7,98.7v-9.3h1.9v3.7h3.7v-3.7h1.9v9.3h-1.9v-4.1h-3.7v4.1h-1.9Z" fill="#fff" />
    <path d="M149.2,98.7v-9.2h1.9v7.7h4.7v1.6h-6.6Z" fill="#fff" />
    <path d="M156.8,98.7v-9.3c1.1,0,4.5,0,5.3.1,2.2.5,2.5,3.9.8,5.1-1.1.8-2.7.5-4.2.6v3.5h-1.9ZM158.7,91v2.6c4.5.6,4.5-3.3,0-2.6Z" fill="#fff" />
    <path d="M168.9,98.7l-3.3-9.3h2l2.4,6.9,2.3-6.9h2l-3.3,9.3h-2Z" fill="#fff" />
    <path d="M179.3,89.4h1.9c0,1.3.2,6.6-.2,7.7-1,2.9-6.2,2.2-5.8-1.2l1.8-.2c-.2,1.4,1.2,2.2,2.1,1.3.5-.7.2-6.5.3-7.5Z" fill="#fff" />
    <path d="M126.2,88.4v-1.7l4.9-6h-4.3v-1.6h6.8v1.5l-5.1,6.3h5.3v1.6h-7.6Z" fill="#fff" />
  </g>
</svg>