<?xml version="1.0" encoding="utf-8"?>
<svg baseProfile="tiny-ps" version="1.2" viewBox="0 0 300 300" xmlns="http://www.w3.org/2000/svg">
  <title>C:\Users\Private\Desktop\verbosely_logo_bimi_tiny_p_s_300x300.svg</title>
  <!-- Generator: Adobe Illustrator 29.5.1, SVG Export Plug-In . SVG Version: 2.1.0 Build 141)  -->
  <path d="M11.4,61l-3.3-9.3h2l2.4,6.9,2.3-6.9h2l-3.3,9.3h-2Z" fill="#ed1c24" />
  <path d="M23.3,63.4h-2l-.8-2.1h-3.7l-.8,2.1h-2l3.6-9.3h2l3.7,9.3ZM19.8,59.7l-1.3-3.5-1.3,3.5h2.5Z" fill="#ed1c24" />
  <path d="M69,63.3h-2l-.8-2.1h-3.7l-.8,2.1h-2l3.6-9.3h2l3.7,9.3ZM65.5,59.6l-1.3-3.5-1.3,3.5h2.5Z" fill="#ed1c24" />
  <path d="M68.5,61l-3.3-9.3h2l2.4,6.9,2.3-6.9h2l-3.3,9.3h-2Z" fill="#ed1c24" />
  <path d="M36.5,123.2v-9.3h2.8l1.7,6.3,1.7-6.3h2.8v9.3h-1.7v-7.3l-1.8,7.3h-1.8l-1.8-7.3v7.3h-1.7Z" fill="#ed1c24" />
  <path d="M90.9,61v-9.3h6.9v1.6h-5v2.1h4.7v1.6h-4.7v2.5h5.2v1.6h-7.1Z" fill="#ed1c24" />
  <path d="M104,61v-7.7h-2.8v-1.6h7.4v1.6h-2.8v7.7h-1.9Z" fill="#ed1c24" />
  <path d="M111.5,61l3.2-4.9-2.9-4.4h2.2l1.9,3,1.8-3h2.2l-2.9,4.5,3.2,4.8h-2.3l-2.1-3.2-2.1,3.2h-2.3Z" fill="#ed1c24" />
  <path d="M122.7,56.4c-.6-6.4,9.5-6.5,9,0,.5,6.3-9.5,6.3-9,0ZM124.7,56.4c.4,6.4,7.7,1.9,4.5-2.4-1.8-1.8-4.8-.3-4.5,2.4Z" fill="#ed1c24" />
  <path d="M134.4,58l1.8-.2c0,3.2,6.1,1.4,3-.5-.7-.2-3.2-.8-3.6-1.3-3.9-4.3,6.1-6.6,6.1-1.7h-1.9c0-1.6-3-1.8-3.3-.3.5,1.7,4.3,1,5.1,2.8,2.4,4.9-7.1,6.2-7.2,1.2Z" fill="#ed1c24" />
  <path d="M90.9,71.2v-9.3h1.9v9.3h-1.9Z" fill="#ed1c24" />
  <path d="M91,81.8v-9.3h1.9v4.1l3.8-4.1h2.5l-3.5,3.6,3.7,5.7h-2.4l-2.6-4.4-1.5,1.6v2.8h-1.9Z" fill="#ed1c24" />
  <path d="M90.9,92.8v-9.3h6.4v1.6h-4.5v2.2h3.9v1.6h-3.9v4h-1.9Z" fill="#ed1c24" />
  <path d="M91,102.9v-9.3h1.8l3.8,6.2v-6.2h1.7v9.3h-1.9l-3.8-6.1v6.1h-1.7Z" fill="#ed1c24" />
  <path d="M90.9,123.4v-9.3c1.3,0,5.1-.2,6.1.3,2.4,1,1.8,4.9-1,4.9,1.4.7,2.3,2.7,3.2,4.1h-2.2c-1.2-1.5-2-4.3-4.2-3.9v3.9h-1.9ZM92.8,118c1.4-.1,3.8.6,3.8-1.2,0-1.8-2.5-1-3.8-1.2v2.4Z" fill="#ed1c24" />
  <path d="M107.9,90.1c.5.3,1,.6,1.5.8l-.7,1.3c-1-.3-.8-.3-2.1-1.2-5.1,2.4-8.7-4.3-5.4-8,4.6-4.3,10.6,2.5,6.7,7ZM106.4,89c2.2-2.6-.6-7.7-3.7-4.8-1.6,1.9-.5,6.6,2.6,5.5-.4-.2-.8-.4-1.2-.6l.5-1.1c.6.2,1.2.5,1.8,1Z" fill="#ed1c24" />
  <path d="M112,91.3l-2.2-9.3h1.9l1.4,6.4,1.7-6.4h2.2l1.6,6.5,1.4-6.5h1.9l-2.3,9.3h-2l-1.9-7-1.8,7h-2Z" fill="#ed1c24" />
  <path d="M126.6,91.3v-3.9l-3.4-5.4h2.2l2.2,3.7,2.1-3.7h2.2l-3.4,5.4v3.9h-1.9Z" fill="#ed1c24" />
  <path d="M132.8,81.9h1.9c.5,2-1.4,8,1.9,7.9,3.1.2,1.3-6,1.8-7.9h1.9c-.3,3.2,1.5,9.9-3.6,9.5-5.3.5-3.5-6.2-3.8-9.5Z" fill="#ed1c24" />
  <path d="M101.7,123.8v-9.3h1.9v3.7h3.7v-3.7h1.9v9.3h-1.9v-4.1h-3.7v4.1h-1.9Z" fill="#ed1c24" />
  <path d="M113.1,123.8v-9.2h1.9v7.7h4.7v1.6h-6.6Z" fill="#ed1c24" />
  <path d="M120.8,123.8v-9.3c1.1,0,4.5,0,5.3.1,2.2.5,2.5,3.9.8,5.1-1.1.8-2.7.5-4.2.6v3.5h-1.9ZM122.6,116.1v2.6c4.5.6,4.5-3.3,0-2.6Z" fill="#ed1c24" />
  <path d="M132.8,123.8l-3.3-9.3h2l2.4,6.9,2.3-6.9h2l-3.3,9.3h-2Z" fill="#ed1c24" />
  <path d="M143.2,114.5h1.9c0,1.3.2,6.6-.2,7.7-1,2.9-6.2,2.2-5.8-1.2l1.8-.2c-.2,1.4,1.2,2.2,2.1,1.3.5-.7.2-6.5.3-7.5Z" fill="#ed1c24" />
  <path d="M16.1,73v-9.3h1.9v3.7h3.7v-3.7h1.9v9.3h-1.9v-4.1h-3.7v4.1h-1.9Z" fill="#ed1c24" />
  <path d="M19.7,79.9v-9.2h1.9v7.7h4.7v1.6h-6.6Z" fill="#ed1c24" />
  <path d="M58.4,72.9v-9.3h1.9v3.7h3.7v-3.7h1.9v9.3h-1.9v-4.1h-3.7v4.1h-1.9Z" fill="#ed1c24" />
  <path d="M60.5,71h1.9c0,1.3.2,6.6-.2,7.7-1,2.9-6.2,2.2-5.8-1.2l1.8-.2c-.2,1.4,1.2,2.2,2.1,1.3.5-.7.2-6.5.3-7.5Z" fill="#ed1c24" />
  <path d="M23.4,91.9v-9.3c1.1,0,4.5,0,5.3.1,2.2.5,2.5,3.9.8,5.1-1.1.8-2.7.5-4.2.6v3.5h-1.9ZM25.3,84.2v2.6c4.5.6,4.5-3.3,0-2.6Z" fill="#ed1c24" />
  <path d="M51.4,90.8v-1.7l4.9-6h-4.3v-1.6h6.8v1.5l-5.1,6.3h5.3v1.6h-7.6Z" fill="#ed1c24" />
  <path d="M31.8,98l1.8.6c-1.2,5-8.7,3.3-8.1-1.7-.6-4.9,6.7-7,8.1-2.2l-1.9.4c-.9-2.9-4.8-1.4-4.3,1.6-.5,3.3,3.7,4.6,4.4,1.3Z" fill="#ed1c24" />
  <path d="M51.9,98.3v-1.6h4.1v3.7c-4.2,3.9-11-.7-8.1-6,1.4-3,7.3-3.1,8,.5l-1.9.3c-5.2-6.4-7.3,8.6,0,4.1v-1.2h-2.2Z" fill="#ed1c24" />
  <path d="M31.3,102.9c1.1,0,4.5,0,5.4,0,2.2.2,2.7,3.4.7,4.3,2.7.6,2.1,4.8-.6,4.9-.7,0-4.3,0-5.4,0v-9.3ZM33.2,104.4v2.2c1.3-.2,3.5.6,3.6-1.1,0-1.6-2.3-.9-3.6-1.1ZM33.2,108.1v2.5c1.3-.2,3.9.6,4-1.2,0-1.8-2.6-1.1-4-1.3Z" fill="#ed1c24" />
  <path d="M43.5,103.2c3.7-.2,8.2-.2,7.8,4.7.4,4.7-4.4,4.8-7.8,4.6v-9.3ZM45.4,104.7v6.2c2.4.2,4.2-.2,4-3.1.3-2.7-1.6-3.3-4-3.1Z" fill="#ed1c24" />
  <path d="M160.3,70.9v-9.3c1.3,0,5.1-.2,6.1.3,2.4,1,1.8,4.9-1,4.9,1.4.7,2.3,2.7,3.2,4.1h-2.2c-1.2-1.5-2-4.3-4.2-3.9v3.9h-1.9ZM162.2,65.5c1.4-.1,3.8.6,3.8-1.2,0-1.8-2.5-1-3.8-1.2v2.4Z" fill="#ed1c24" />
  <path d="M160.3,91.8v-9.3c1.1,0,4.5,0,5.3.1,2.2.5,2.5,3.9.8,5.1-1.1.8-2.7.5-4.2.6v3.5h-1.9ZM162.2,84.1v2.6c4.5.6,4.5-3.3,0-2.6Z" fill="#ed1c24" />
  <path d="M160.4,81.8v-9.2h1.9v7.7h4.7v1.6h-6.6Z" fill="#ed1c24" />
  <path d="M160.3,92.8c3.7-.2,8.2-.2,7.8,4.7.4,4.7-4.4,4.8-7.8,4.6v-9.3ZM162.2,94.3v6.2c2.4.2,4.2-.2,4-3.1.3-2.7-1.6-3.3-4-3.1Z" fill="#ed1c24" />
  <path d="M160.3,51.6c1.1,0,4.5,0,5.4,0,2.2.2,2.7,3.4.7,4.3,2.7.6,2.1,4.8-.6,4.9-.7,0-4.3,0-5.4,0v-9.3ZM162.2,53.2v2.2c1.3-.2,3.5.6,3.6-1.1,0-1.6-2.3-.9-3.6-1.1ZM162.2,56.9v2.5c1.3-.2,3.9.6,4-1.2,0-1.8-2.6-1.1-4-1.3Z" fill="#ed1c24" />
  <path d="M160.3,112.6v-9.3h1.9v3.7h3.7v-3.7h1.9v9.3h-1.9v-4.1h-3.7v4.1h-1.9Z" fill="#ed1c24" />
  <path d="M160.2,123.4v-9.3h1.9v9.3h-1.9Z" fill="#ed1c24" />
  <path d="M190.4,60.8v-1.7l4.9-6h-4.3v-1.6h6.8v1.5l-5.1,6.3h5.3v1.6h-7.6Z" fill="#ed1c24" />
  <path d="M189.4,60.8h-2l-.8-2.1h-3.7l-.8,2.1h-2l3.6-9.3h2l3.7,9.3ZM185.9,57.1l-1.3-3.5-1.3,3.5h2.5Z" fill="#ed1c24" />
  <path d="M210.1,81v-9.3c1.1,0,4.5,0,5.3.1,2.2.5,2.5,3.9.8,5.1-1.1.8-2.7.5-4.2.6v3.5h-1.9ZM212,73.2v2.6c4.5.6,4.5-3.3,0-2.6Z" fill="#ed1c24" />
  <path d="M175.9,57.4l1.8.6c-1.2,5-8.7,3.3-8.1-1.7-.6-4.9,6.7-7,8.1-2.2l-1.9.4c-.9-2.9-4.8-1.4-4.3,1.6-.5,3.3,3.7,4.6,4.4,1.3Z" fill="#ed1c24" />
  <path d="M207.5,66.1c-.6-6.4,9.5-6.5,9,0,.5,6.3-9.5,6.3-9,0ZM209.5,66c-.4,4.2,5.6,4.2,5.2,0,.4-4.2-5.6-4.1-5.2,0Z" fill="#ed1c24" />
  <path d="M207.1,60.7c.5.3,1,.6,1.5.8l-.7,1.3c-1-.3-.8-.3-2.1-1.2-5.1,2.4-8.7-4.3-5.4-8,4.6-4.3,10.6,2.5,6.7,7ZM205.6,59.6c2.2-2.6-.6-7.7-3.7-4.8-1.6,1.9-.5,6.6,2.6,5.5-.4-.2-.8-.4-1.2-.6l.5-1.1c.6.2,1.2.5,1.8,1Z" fill="#ed1c24" />
  <path d="M171.6,92.3v-7.7h-2.8v-1.6h7.4v1.6h-2.8v7.7h-1.9Z" fill="#ed1c24" />
  <path d="M177.5,92.8v-9.3h6.9v1.6h-5v2.1h4.7v1.6h-4.7v2.5h5.2v1.6h-7.1Z" fill="#ed1c24" />
  <path d="M189.8,89.1v-1.6h4.1v3.7c-4.2,3.9-11-.7-8.1-6,1.4-3,7.3-3.1,8,.5l-1.9.3c-5.2-6.4-7.3,8.6,0,4.1v-1.2h-2.2Z" fill="#ed1c24" />
  <path d="M199.1,81.7h1.9c0,1.3.2,6.6-.2,7.7-1,2.9-6.2,2.2-5.8-1.2l1.8-.2c-.2,1.4,1.2,2.2,2.1,1.3.5-.7.2-6.5.3-7.5Z" fill="#ed1c24" />
  <path d="M202.2,85.1l1.8-.2c0,2.5,4.7,2.3,3.7,0-1.5-1.1-5.3-.9-5.2-3.6,0-3.7,7.1-3.4,7,.2h-1.9c0-1.6-3-1.8-3.3-.3.5,1.7,4.3,1,5.1,2.8,2.4,4.9-7.1,6.2-7.2,1.2Z" fill="#ed1c24" />
  <path d="M210.4,123.2v-9.3h1.8l3.8,6.2v-6.2h1.7v9.3h-1.9l-3.8-6.1v6.1h-1.7Z" fill="#ed1c24" />
  <path d="M205.6,114.5v-9.3c1.3,0,5.1-.2,6.1.3,2.4,1,1.8,4.9-1,4.9,1.4.7,2.3,2.7,3.2,4.1h-2.2c-1.2-1.5-2-4.3-4.2-3.9v3.9h-1.9ZM207.5,109.1c1.4-.1,3.8.6,3.8-1.2,0-1.8-2.5-1-3.8-1.2v2.4Z" fill="#ed1c24" />
  <path d="M208.7,104.5h-2l-.8-2.1h-3.7l-.8,2.1h-2l3.6-9.3h2l3.7,9.3ZM205.2,100.8l-1.3-3.5-1.3,3.5h2.5Z" fill="#ed1c24" />
  <path d="M196.4,101.8l-3.3-9.3h2l2.4,6.9,2.3-6.9h2l-3.3,9.3h-2Z" fill="#ed1c24" />
  <path d="M237.7,91.7v-9.3h1.9v3.7h3.7v-3.7h1.9v9.3h-1.9v-4.1h-3.7v4.1h-1.9Z" fill="#ed1c24" />
  <path d="M237.7,123.2v-9.3h6.4v1.6h-4.5v2.2h3.9v1.6h-3.9v4h-1.9Z" fill="#ed1c24" />
  <path d="M237.7,60.7v-9.3c1.1,0,4.5,0,5.3.1,2.2.5,2.5,3.9.8,5.1-1.1.8-2.7.5-4.2.6v3.5h-1.9ZM239.5,53v2.6c4.5.6,4.5-3.3,0-2.6Z" fill="#ed1c24" />
  <path d="M237.7,103c3.7-.2,8.2-.2,7.8,4.7.4,4.7-4.4,4.8-7.8,4.6v-9.3ZM239.5,104.6v6.2c2.4.2,4.2-.2,4-3.1.3-2.7-1.6-3.3-4-3.1Z" fill="#ed1c24" />
  <path d="M237.7,61.8h1.9c.5,2-1.4,8,1.9,7.9,3.1.2,1.3-6,1.8-7.9h1.9c-.3,3.2,1.5,9.9-3.6,9.5-5.3.5-3.5-6.2-3.8-9.5Z" fill="#ed1c24" />
  <path d="M237.6,101.9v-9.3h2.8l1.7,6.3,1.7-6.3h2.8v9.3h-1.7v-7.3l-1.8,7.3h-1.8l-1.8-7.3v7.3h-1.7Z" fill="#ed1c24" />
  <path d="M237.7,71.9c1.1,0,4.5,0,5.4,0,2.2.2,2.7,3.4.7,4.3,2.7.6,2.1,4.8-.6,4.9-.7,0-4.3,0-5.4,0v-9.3ZM239.6,73.4v2.2c1.3-.2,3.5.6,3.6-1.1,0-1.6-2.3-.9-3.6-1.1ZM239.6,77.1v2.5c1.3-.2,3.9.6,4-1.2,0-1.8-2.6-1.1-4-1.3Z" fill="#ed1c24" />
  <path d="M258,60.7v-7.7h-2.8v-1.6h7.4v1.6h-2.8v7.7h-1.9Z" fill="#ed1c24" />
  <path d="M269.5,80.7h1.9c0,1.3.2,6.6-.2,7.7-1,2.9-6.2,2.2-5.8-1.2l1.8-.2c-.2,1.4,1.2,2.2,2.1,1.3.5-.7.2-6.5.3-7.5Z" fill="#ed1c24" />
  <path d="M272,77.2c3.7-.2,8.2-.2,7.8,4.7.4,4.7-4.4,4.8-7.8,4.6v-9.3ZM273.9,78.8v6.2c2.4.2,4.2-.2,4-3.1.3-2.7-1.6-3.3-4-3.1Z" fill="#ed1c24" />
  <path d="M286.1,78.9c.5.3,1,.6,1.5.8l-.7,1.3c-1-.3-.8-.3-2.1-1.2-5.1,2.4-8.7-4.3-5.4-8,4.6-4.3,10.6,2.5,6.7,7ZM284.6,77.8c2.2-2.6-.6-7.7-3.7-4.8-1.6,1.9-.5,6.6,2.6,5.5-.4-.2-.8-.4-1.2-.6l.5-1.1c.6.2,1.2.5,1.8,1Z" fill="#ed1c24" />
  <path d="M278.6,65.7c-.6-6.4,9.5-6.5,9,0,.5,6.3-9.5,6.3-9,0ZM280.5,65.6c-.4,4.2,5.6,4.2,5.2,0,.4-4.2-5.6-4.1-5.2,0Z" fill="#ed1c24" />
  <path d="M272.6,59.9l1.8-.2c0,2.5,4.7,2.3,3.7,0-1.5-1.1-5.3-.9-5.2-3.6,0-3.7,7.1-3.4,7,.2h-1.9c0-1.6-3-1.8-3.3-.3.5,1.7,4.3,1,5.1,2.8,2.4,4.9-7.1,6.2-7.2,1.2Z" fill="#ed1c24" />
  <path d="M264.1,61l3.2-4.9-2.9-4.4h2.2l1.9,3,1.8-3h2.2l-2.9,4.5,3.2,4.8h-2.3l-2.1-3.2-2.1,3.2h-2.3Z" fill="#ed1c24" />
  <path d="M277.5,110.2c1.1,0,4.5,0,5.4,0,2.2.2,2.7,3.4.7,4.3,2.7.6,2.1,4.8-.6,4.9-.7,0-4.3,0-5.4,0v-9.3ZM279.4,111.8v2.2c1.3-.2,3.5.6,3.6-1.1,0-1.6-2.3-.9-3.6-1.1ZM279.4,115.5v2.5c1.3-.2,3.9.6,4-1.2,0-1.8-2.6-1.1-4-1.3Z" fill="#ed1c24" />
  <path d="M248.6,91.3v-3.9l-3.4-5.4h2.2l2.2,3.7,2.1-3.7h2.2l-3.4,5.4v3.9h-1.9Z" fill="#ed1c24" />
  <path d="M256.7,91.3l-2.2-9.3h1.9l1.4,6.4,1.7-6.4h2.2l1.6,6.5,1.4-6.5h1.9l-2.3,9.3h-2l-1.9-7-1.8,7h-2Z" fill="#ed1c24" />
  <path d="M246.6,60.7v-9.3c1.3,0,5.1-.2,6.1.3,2.4,1,1.8,4.9-1,4.9,1.4.7,2.3,2.7,3.2,4.1h-2.2c-1.2-1.5-2-4.3-4.2-3.9v3.9h-1.9ZM248.5,55.4c1.4-.1,3.8.6,3.8-1.2,0-1.8-2.5-1-3.8-1.2v2.4Z" fill="#ed1c24" />
  <path d="M281.7,91.9l1.8.6c-1.2,5-8.7,3.3-8.1-1.7-.6-4.9,6.7-7,8.1-2.2l-1.9.4c-.9-2.9-4.8-1.4-4.3,1.6-.5,3.3,3.7,4.6,4.4,1.3Z" fill="#ed1c24" />
  <path d="M244.4,123v-9.2h1.9v7.7h4.7v1.6h-6.6Z" fill="#ed1c24" />
  <path d="M259.6,123.5v-9.3h2.8l1.7,6.3,1.7-6.3h2.8v9.3h-1.7v-7.3l-1.8,7.3h-1.8l-1.8-7.3v7.3h-1.7Z" fill="#ed1c24" />
  <path d="M282,107.2c-.6-6.4,9.5-6.5,9,0,.5,6.3-9.5,6.3-9,0ZM283.9,107.2c-.4,4.2,5.6,4.2,5.2,0,.4-4.2-5.6-4.1-5.2,0Z" fill="#ed1c24" />
  <path d="M269.4,113.6h1.9c.5,2-1.4,8,1.9,7.9,3.1.2,1.3-6,1.8-7.9h1.9c-.3,3.2,1.5,9.9-3.6,9.5-5.3.5-3.5-6.2-3.8-9.5Z" fill="#ed1c24" />
  <path d="M282.9,98.6l1.8-.2c0,2.5,4.7,2.3,3.7,0-1.5-1.1-5.3-.9-5.2-3.6,0-3.7,7.1-3.4,7,.2h-1.9c0-1.6-3-1.8-3.3-.3.5,1.7,4.3,1,5.1,2.8,2.4,4.9-7.1,6.2-7.2,1.2Z" fill="#ed1c24" />
  <path d="M254.3,120.3v-1.6h4.1v3.7c-4.2,3.9-11-.7-8.1-6,1.4-3,7.3-3.1,8,.5l-1.9.3c-5.2-6.4-7.3,8.6,0,4.1v-1.2h-2.2Z" fill="#ed1c24" />
  <path d="M37.3,162.2l1.8.6c-1.2,5-8.6,3.3-8.1-1.7-.6-4.9,6.7-7,8.1-2.2l-1.9.4c-.9-2.9-4.8-1.4-4.3,1.6-.5,3.3,3.7,4.6,4.3,1.3Z" fill="#ed1c24" />
  <path d="M14.5,171.1c-.6-6.4,9.5-6.5,9,0,.5,6.3-9.5,6.3-9,0ZM16.4,171c-.4,4.2,5.6,4.2,5.1,0,.4-4.2-5.6-4.1-5.1,0Z" fill="#ed1c24" />
  <path d="M18.3,184.8h-2l-.8-2.1h-3.7l-.8,2.1h-2l3.6-9.3h2l3.7,9.3ZM14.9,181.1l-1.3-3.5-1.3,3.5h2.5Z" fill="#ed1c24" />
  <path d="M16.5,194.6c.5.3,1,.6,1.5.8l-.7,1.3c-1-.3-.8-.3-2.1-1.2-5.1,2.4-8.7-4.3-5.4-8,4.6-4.3,10.5,2.5,6.7,7ZM15,193.5c2.2-2.6-.6-7.7-3.7-4.8-1.6,1.9-.5,6.6,2.6,5.5-.4-.2-.8-.4-1.2-.6l.5-1.1c.6.2,1.2.5,1.8,1Z" fill="#ed1c24" />
  <path d="M9.7,203.8l1.8-.2c0,2.5,4.7,2.3,3.7,0-1.5-1.1-5.3-.9-5.2-3.6,0-3.7,7.1-3.4,7,.2h-1.9c0-1.6-3-1.8-3.3-.3.5,1.7,4.3,1,5.1,2.8,2.4,4.9-7.1,6.2-7.2,1.2Z" fill="#ed1c24" />
  <path d="M14.5,212.9c-.6-6.4,9.5-6.5,9,0,.5,6.3-9.5,6.3-9,0ZM16.4,212.8c-.4,4.2,5.6,4.2,5.1,0,.4-4.2-5.6-4.1-5.1,0Z" fill="#ed1c24" />
  <path d="M26.1,214.4h1.9c0,1.3.2,6.6-.2,7.7-1,2.9-6.2,2.2-5.8-1.2l1.8-.2c-.2,1.4,1.2,2.2,2.1,1.3.5-.7.2-6.5.3-7.5Z" fill="#ed1c24" />
  <path d="M55.1,222.4l1.8-.2c0,2.5,4.7,2.3,3.7,0-1.5-1.1-5.3-.9-5.2-3.6,0-3.7,7.1-3.4,7,.2h-1.9c0-1.6-3-1.8-3.3-.3.5,1.7,4.3,1,5.1,2.8,2.4,4.9-7.1,6.2-7.2,1.2Z" fill="#ed1c24" />
  <path d="M40.9,229.7v-9.3h1.9v9.3h-1.9Z" fill="#ed1c24" />
  <path d="M46.3,219.1h1.9c.5,2-1.4,8,1.9,7.9,3.1.2,1.3-6,1.8-7.9h1.9c-.3,3.2,1.5,9.9-3.6,9.5-5.3.5-3.5-6.2-3.8-9.5Z" fill="#ed1c24" />
  <path d="M29.6,225l1.8-.2c0,2.5,4.7,2.3,3.7,0-1.5-1.1-5.3-.9-5.2-3.6,0-3.7,7.1-3.4,7,.2h-1.9c0-1.6-3-1.8-3.3-.3.5,1.7,4.3,1,5.1,2.8,2.4,4.9-7.1,6.2-7.2,1.2Z" fill="#ed1c24" />
  <path d="M61.4,214.1c-.6-6.4,9.5-6.5,9,0,.5,6.3-9.5,6.3-9,0ZM63.3,214.1c-.4,4.2,5.6,4.2,5.1,0,.4-4.2-5.6-4.1-5.1,0Z" fill="#ed1c24" />
  <path d="M72.8,201.3h1.9c0,1.3.2,6.6-.2,7.7-1,2.9-6.2,2.2-5.8-1.2l1.8-.2c-.2,1.4,1.2,2.2,2.1,1.3.5-.7.2-6.5.3-7.5Z" fill="#ed1c24" />
  <path d="M69.7,204.2v-9.3c1.1,0,4.5,0,5.2.1,2.2.5,2.5,3.9.8,5.1-1.1.8-2.7.5-4.1.6v3.5h-1.9ZM71.6,196.5v2.6c4.5.6,4.5-3.3,0-2.6Z" fill="#ed1c24" />
  <path d="M70.1,184.1c1.1,0,4.5,0,5.4,0,2.2.2,2.7,3.4.7,4.3,2.7.6,2.1,4.8-.6,4.9-.7,0-4.3,0-5.4,0v-9.3ZM71.9,185.6v2.2c1.3-.2,3.5.6,3.6-1.1,0-1.6-2.3-.9-3.6-1.1ZM71.9,189.3v2.5c1.3-.2,3.9.6,4-1.2,0-1.8-2.6-1.1-4-1.3Z" fill="#ed1c24" />
  <path d="M65.9,178.8l1.8-.2c0,2.5,4.7,2.3,3.7,0-1.5-1.1-5.3-.9-5.2-3.6,0-3.7,7.1-3.4,7,.2h-1.9c0-1.6-3-1.8-3.3-.3.5,1.7,4.3,1,5.1,2.8,2.4,4.9-7.1,6.2-7.2,1.2Z" fill="#ed1c24" />
  <path d="M60.5,164c3.7-.2,8.2-.2,7.8,4.7.4,4.7-4.4,4.8-7.8,4.6v-9.3ZM62.4,165.6v6.2c2.4.2,4.2-.2,4-3.1.3-2.7-1.6-3.3-4-3.1Z" fill="#ed1c24" />
  <path d="M52.1,167.8v-9.3c1.3,0,5.1-.2,6.1.3,2.4,1,1.8,4.9-1,4.9,1.4.7,2.3,2.7,3.2,4.1h-2.2c-1.2-1.5-2-4.3-4.2-3.9v3.9h-1.9ZM54,162.4c1.4-.1,3.8.6,3.8-1.2,0-1.8-2.5-1-3.8-1.2v2.4Z" fill="#ed1c24" />
  <path d="M48.1,163.6c.5.3,1,.6,1.5.8l-.7,1.3c-1-.3-.8-.3-2.1-1.2-5.1,2.4-8.7-4.3-5.4-8,4.6-4.3,10.5,2.5,6.7,7ZM46.6,162.5c2.2-2.6-.6-7.7-3.7-4.8-1.6,1.9-.5,6.6,2.6,5.5-.4-.2-.8-.4-1.2-.6l.5-1.1c.6.2,1.2.5,1.8,1Z" fill="#ed1c24" />
  <path d="M25.5,170.2v-3.9l-3.4-5.4h2.2l2.2,3.7,2.1-3.7h2.2l-3.4,5.4v3.9h-1.9Z" fill="#ed1c24" />
  <path d="M93.7,191.8v-9.3h1.9v3.7h3.7v-3.7h1.9v9.3h-1.9v-4.1h-3.7v4.1h-1.9Z" fill="#ed1c24" />
  <path d="M81,214.1v-9.3h1.8l3.8,6.2v-6.2h1.7v9.3h-1.9l-3.8-6.1v6.1h-1.7Z" fill="#ed1c24" />
  <path d="M87.1,223.4v-3.9l-3.4-5.4h2.2l2.2,3.7,2.1-3.7h2.2l-3.4,5.4v3.9h-1.9Z" fill="#ed1c24" />
  <path d="M95.8,217.4h1.9c0,1.3.2,6.6-.2,7.7-1,2.9-6.2,2.2-5.8-1.2l1.8-.2c-.2,1.4,1.2,2.2,2.1,1.3.5-.7.2-6.5.3-7.5Z" fill="#ed1c24" />
  <path d="M99.9,226.1l1.8-.2c0,2.5,4.7,2.3,3.7,0-1.5-1.1-5.3-.9-5.2-3.6,0-3.7,7.1-3.4,7,.2h-1.9c0-1.6-3-1.8-3.3-.3.5,1.7,4.3,1,5.1,2.8,2.4,4.9-7.1,6.2-7.2,1.2Z" fill="#ed1c24" />
  <path d="M109.6,219.9h1.9c.5,2-1.4,8,1.9,7.9,3.1.2,1.3-6,1.8-7.9h1.9c-.3,3.2,1.5,9.9-3.6,9.5-5.3.5-3.5-6.2-3.8-9.5Z" fill="#ed1c24" />
  <path d="M127.7,206.9c3.7-.2,8.2-.2,7.8,4.7.4,4.7-4.4,4.8-7.8,4.6v-9.3ZM129.5,208.5v6.2c2.4.2,4.2-.2,4-3.1.3-2.7-1.6-3.3-4-3.1Z" fill="#ed1c24" />
  <path d="M126.3,195.6c1.1,0,4.5,0,5.4,0,2.2.2,2.7,3.4.7,4.3,2.7.6,2.1,4.8-.6,4.9-.7,0-4.3,0-5.4,0v-9.3ZM128.2,197.1v2.2c1.3-.2,3.5.6,3.6-1.1,0-1.6-2.3-.9-3.6-1.1ZM128.2,200.8v2.5c1.3-.2,3.9.6,4-1.2,0-1.8-2.6-1.1-4-1.3Z" fill="#ed1c24" />
  <path d="M126.5,199h-2l-.8-2.1h-3.7l-.8,2.1h-2l3.6-9.3h2l3.7,9.3ZM123,195.3l-1.3-3.5-1.3,3.5h2.5Z" fill="#ed1c24" />
  <path d="M112.5,197.5l-3.3-9.3h2l2.4,6.9,2.3-6.9h2l-3.3,9.3h-2Z" fill="#ed1c24" />
  <path d="M104.3,194.8v-9.2h1.9v7.7h4.7v1.6h-6.6Z" fill="#ed1c24" />
  <path d="M92,180h1.9c0,1.3.2,6.6-.2,7.7-1,2.9-6.2,2.2-5.8-1.2l1.8-.2c-.2,1.4,1.2,2.2,2.1,1.3.5-.7.2-6.5.3-7.5Z" fill="#ed1c24" />
  <path d="M124.7,176.8v-9.3c1.3,0,5.1-.2,6.1.3,2.4,1,1.8,4.9-1,4.9,1.4.7,2.3,2.7,3.2,4.1h-2.2c-1.2-1.5-2-4.3-4.2-3.9v3.9h-1.9ZM126.6,171.4c1.4-.1,3.8.6,3.8-1.2,0-1.8-2.5-1-3.8-1.2v2.4Z" fill="#ed1c24" />
  <path d="M86.6,179.8v-1.6h4v3.7c-4.2,3.9-11-.7-8.1-6,1.4-3,7.3-3.1,8,.5l-1.9.3c-5.2-6.4-7.3,8.6,0,4.1v-1.2h-2.2Z" fill="#ed1c24" />
  <path d="M91.5,172.1c.5.3,1,.6,1.5.8l-.7,1.3c-1-.3-.8-.3-2.1-1.2-5.1,2.4-8.7-4.3-5.4-8,4.6-4.3,10.5,2.5,6.7,7ZM90,171.1c2.2-2.6-.6-7.7-3.7-4.8-1.6,1.9-.5,6.6,2.6,5.5-.4-.2-.8-.4-1.2-.6l.5-1.1c.6.2,1.2.5,1.8,1Z" fill="#ed1c24" />
  <path d="M97.6,163.3l1.8.6c-1.2,5-8.6,3.3-8.1-1.7-.6-4.9,6.7-7,8.1-2.2l-1.9.4c-.9-2.9-4.8-1.4-4.3,1.6-.5,3.3,3.7,4.6,4.3,1.3Z" fill="#ed1c24" />
  <path d="M100.1,160.2c-.6-6.4,9.5-6.5,9,0,.5,6.3-9.5,6.3-9,0ZM102.1,160.1c-.4,4.2,5.6,4.2,5.1,0,.4-4.2-5.6-4.1-5.1,0Z" fill="#ed1c24" />
  <path d="M109.8,155.6c1.1,0,4.5,0,5.4,0,2.2.2,2.7,3.4.7,4.3,2.7.6,2.1,4.8-.6,4.9-.7,0-4.3,0-5.4,0v-9.3ZM111.7,157.2v2.2c1.3-.2,3.5.6,3.6-1.1,0-1.6-2.3-.9-3.6-1.1ZM111.7,160.9v2.5c1.3-.2,3.9.6,4-1.2,0-1.8-2.6-1.1-4-1.3Z" fill="#ed1c24" />
  <path d="M117.7,165.2l1.8-.2c0,2.5,4.7,2.3,3.7,0-1.5-1.1-5.3-.9-5.2-3.6,0-3.7,7.1-3.4,7,.2h-1.9c0-1.6-3-1.8-3.3-.3.5,1.7,4.3,1,5.1,2.8,2.4,4.9-7.1,6.2-7.2,1.2Z" fill="#ed1c24" />
  <path d="M120.3,226v-9.3h6.9v1.6h-5v2.1h4.7v1.6h-4.7v2.5h5.2v1.6h-7.1Z" fill="#ed1c24" />
  <path d="M188.6,225.9l1.8-.2c0,2.5,4.7,2.3,3.7,0-1.5-1.1-5.3-.9-5.2-3.6,0-3.7,7.1-3.4,7,.2h-1.9c0-1.6-3-1.8-3.3-.3.5,1.7,4.3,1,5.1,2.8,2.4,4.9-7.1,6.2-7.2,1.2Z" fill="#ed1c24" />
  <path d="M185,227.7c.5.3,1,.6,1.5.8l-.7,1.3c-1-.3-.8-.3-2.1-1.2-5.1,2.4-8.7-4.3-5.4-8,4.6-4.3,10.5,2.5,6.7,7ZM183.5,226.6c2.2-2.6-.6-7.7-3.7-4.8-1.6,1.8-.5,6.6,2.6,5.5-.4-.2-.8-.4-1.2-.6l.5-1.1c.6.2,1.2.5,1.8,1Z" fill="#ed1c24" />
  <path d="M171,228.9v-9.2h1.9v7.7h4.7v1.6h-6.6Z" fill="#ed1c24" />
  <path d="M165.2,219.6h1.9c0,1.3.2,6.6-.2,7.7-1,2.9-6.2,2.2-5.8-1.2l1.8-.2c-.2,1.4,1.2,2.2,2,1.3.5-.7.2-6.5.3-7.5Z" fill="#ed1c24" />
  <path d="M155.1,228.9v-7.7h-2.8v-1.6h7.4v1.6h-2.8v7.7h-1.9Z" fill="#ed1c24" />
  <path d="M184.1,186.9c3.7-.2,8.2-.2,7.8,4.7.4,4.7-4.4,4.8-7.8,4.6v-9.3ZM186,188.5v6.2c2.4.2,4.2-.2,4-3.1.3-2.7-1.6-3.3-4-3.1Z" fill="#ed1c24" />
  <path d="M173.7,196.2v-9.3h1.8l3.8,6.2v-6.2h1.7v9.3h-1.9l-3.8-6.1v6.1h-1.7Z" fill="#ed1c24" />
  <path d="M163,196.2v-1.7l4.9-6h-4.3v-1.6h6.8v1.5l-5.1,6.3h5.3v1.6h-7.6Z" fill="#ed1c24" />
  <path d="M153.4,186.9c1.1,0,4.5,0,5.4,0,2.2.2,2.7,3.4.7,4.3,2.7.6,2.1,4.8-.6,4.9-.7,0-4.3,0-5.4,0v-9.3ZM155.3,188.5v2.2c1.3-.2,3.5.6,3.6-1.1,0-1.6-2.3-.9-3.6-1.1ZM155.3,192.2v2.5c1.3-.2,3.9.6,4-1.2,0-1.8-2.6-1.1-4-1.3Z" fill="#ed1c24" />
  <path d="M142.7,228.5v-9.3c1.3,0,5.1-.2,6.1.3,2.4,1,1.8,4.9-1,4.9,1.4.7,2.3,2.7,3.2,4.1h-2.2c-1.2-1.5-2-4.3-4.2-3.9v3.9h-1.9ZM144.6,223.2c1.4-.1,3.8.6,3.8-1.2,0-1.8-2.5-1-3.8-1.2v2.4Z" fill="#ed1c24" />
  <path d="M142.7,197.7h1.9c.5,2-1.4,8,1.9,7.9,3.1.2,1.3-6,1.8-7.9h1.9c-.3,3.2,1.5,9.9-3.6,9.5-5.3.5-3.5-6.2-3.8-9.5Z" fill="#ed1c24" />
  <path d="M142.7,196.1v-9.3h1.9v4.1l3.8-4.1h2.5l-3.5,3.6,3.7,5.7h-2.4l-2.6-4.4-1.5,1.6v2.8h-1.9Z" fill="#ed1c24" />
  <path d="M142.7,186.1v-9.3h2.8l1.7,6.3,1.7-6.3h2.8v9.3h-1.7v-7.3l-1.8,7.3h-1.8l-1.8-7.3v7.3h-1.7Z" fill="#ed1c24" />
  <path d="M142.7,175.9v-9.3h6.4v1.6h-4.5v2.2h3.9v1.6h-3.9v4h-1.9Z" fill="#ed1c24" />
  <path d="M192.9,165.9v-9.3h1.9v9.3h-1.9Z" fill="#ed1c24" />
  <path d="M182,165.9v-9.3h1.9v3.7h3.7v-3.7h1.9v9.3h-1.9v-4.1h-3.7v4.1h-1.9Z" fill="#ed1c24" />
  <path d="M171.6,165.9v-9.3h6.9v1.6h-5v2.1h4.7v1.6h-4.7v2.5h5.2v1.6h-7.1Z" fill="#ed1c24" />
  <path d="M169.3,165.9h-2l-.8-2.1h-3.7l-.8,2.1h-2l3.6-9.3h2l3.7,9.3ZM165.9,162.2l-1.3-3.5-1.3,3.5h2.5Z" fill="#ed1c24" />
  <path d="M154.3,165.9v-7.7h-2.8v-1.6h7.4v1.6h-2.8v7.7h-1.9Z" fill="#ed1c24" />
  <path d="M142.7,165.9v-9.3c1.1,0,4.5,0,5.2.1,2.2.5,2.5,3.9.8,5.1-1.1.8-2.7.5-4.1.6v3.5h-1.9ZM144.6,158.1v2.6c4.5.6,4.5-3.3,0-2.6Z" fill="#ed1c24" />
  <path d="M238,228.9v-9.3h6.4v1.6h-4.5v2.2h3.9v1.6h-3.9v4h-1.9Z" fill="#ed1c24" />
  <path d="M228.9,228.9v-9.3h1.8l3.8,6.2v-6.2h1.7v9.3h-1.9l-3.8-6.1v6.1h-1.7Z" fill="#ed1c24" />
  <path d="M215.5,228.9v-7.7h-2.8v-1.6h7.4v1.6h-2.8v7.7h-1.9Z" fill="#ed1c24" />
  <path d="M221,219.6h1.9c.5,2-1.4,8,1.9,7.9,3.1.2,1.3-6,1.8-7.9h1.9c-.3,3.2,1.5,9.9-3.6,9.5-5.3.5-3.5-6.2-3.8-9.5Z" fill="#ed1c24" />
  <path d="M203.5,228.1v-9.3h6.9v1.6h-5v2.1h4.7v1.6h-4.7v2.5h5.2v1.6h-7.1Z" fill="#ed1c24" />
  <path d="M203.5,217.4v-9.3h2.8l1.7,6.3,1.7-6.3h2.8v9.3h-1.7v-7.3l-1.8,7.3h-1.8l-1.8-7.3v7.3h-1.7Z" fill="#ed1c24" />
  <path d="M203.4,197.3v-9.3h1.9v9.3h-1.9Z" fill="#ed1c24" />
  <path d="M203.5,186.8v-9.3c1.3,0,5.1-.2,6.1.3,2.4,1,1.8,4.9-1,4.9,1.4.7,2.3,2.7,3.2,4.1h-2.2c-1.2-1.5-2-4.3-4.2-3.9v3.9h-1.9ZM205.4,181.4c1.4-.1,3.8.6,3.8-1.2,0-1.8-2.5-1-3.8-1.2v2.4Z" fill="#ed1c24" />
  <path d="M203.5,176.5v-9.2h1.9v7.7h4.7v1.6h-6.6Z" fill="#ed1c24" />
  <path d="M203.5,165.9v-9.3h1.9v3.7h3.7v-3.7h1.9v9.3h-1.9v-4.1h-3.7v4.1h-1.9Z" fill="#ed1c24" />
  <path d="M203.5,207v-9.3c1.1,0,4.5,0,5.2.1,2.2.5,2.5,3.9.8,5.1-1.1.8-2.7.5-4.1.6v3.5h-1.9ZM205.4,199.3v2.6c4.5.6,4.5-3.3,0-2.6Z" fill="#ed1c24" />
  <path d="M142.3,217.8l3.2-4.9-2.9-4.5h2.2l1.9,3,1.8-3h2.2l-2.9,4.5,3.2,4.8h-2.3l-2.1-3.2-2.1,3.2h-2.3Z" fill="#ed1c24" />
  <path d="M231.6,166.1l-3.3-9.3h2l2.4,6.9,2.3-6.9h2l-3.3,9.3h-2Z" fill="#ed1c24" />
  <path d="M258.6,224.2v-3.9l-3.4-5.4h2.2l2.2,3.7,2.1-3.7h2.2l-3.4,5.4v3.9h-1.9Z" fill="#ed1c24" />
  <path d="M255.8,218.9h1.9c.5,2-1.4,8,1.9,7.9,3.1.2,1.3-6,1.8-7.9h1.9c-.3,3.2,1.5,9.9-3.6,9.5-5.3.5-3.5-6.2-3.8-9.5Z" fill="#ed1c24" />
  <path d="M250.9,191.8l1.8-.2c0,2.5,4.7,2.3,3.7,0-1.5-1.1-5.3-.9-5.2-3.6,0-3.7,7.1-3.4,7,.2h-1.9c0-1.6-3-1.8-3.3-.3.5,1.7,4.3,1,5.1,2.8,2.4,4.9-7.1,6.2-7.2,1.2Z" fill="#ed1c24" />
  <path d="M274.4,168.3h1.9c0,1.3.2,6.6-.2,7.7-1,2.9-6.2,2.2-5.8-1.2l1.8-.2c-.2,1.4,1.2,2.2,2,1.3.5-.7.2-6.5.3-7.5Z" fill="#ed1c24" />
  <path d="M255.8,214.2v-9.3h1.9v3.7h3.7v-3.7h1.9v9.3h-1.9v-4.1h-3.7v4.1h-1.9Z" fill="#ed1c24" />
  <path d="M239,175v-9.3h1.9v9.3h-1.9Z" fill="#ed1c24" />
  <path d="M270.4,186.9l-3.3-9.3h2l2.4,6.9,2.3-6.9h2l-3.3,9.3h-2Z" fill="#ed1c24" />
  <path d="M243.9,176.3v-9.2h1.9v7.7h4.7v1.6h-6.6Z" fill="#ed1c24" />
  <path d="M286.6,165.7l-3.3-9.3h2l2.4,6.9,2.3-6.9h2l-3.3,9.3h-2Z" fill="#ed1c24" />
  <path d="M286.4,167.2h-2l-.8-2.1h-3.7l-.8,2.1h-2l3.6-9.3h2l3.7,9.3ZM282.9,163.5l-1.3-3.5-1.3,3.5h2.5Z" fill="#ed1c24" />
  <path d="M243.9,167.8h-2l-.8-2.1h-3.7l-.8,2.1h-2l3.6-9.3h2l3.7,9.3ZM240.5,164.1l-1.3-3.5-1.3,3.5h2.5Z" fill="#ed1c24" />
  <path d="M279.4,174.4v-9.3h1.9v9.3h-1.9Z" fill="#ed1c24" />
  <path d="M255.9,204.5l-2.2-9.3h1.9l1.4,6.4,1.7-6.4h2.2l1.6,6.5,1.4-6.5h1.9l-2.3,9.3h-2l-1.9-7-1.8,7h-2Z" fill="#ed1c24" />
  <path d="M265.1,194.5v-7.7h-2.8v-1.6h7.4v1.6h-2.8v7.7h-1.9Z" fill="#ed1c24" />
  <path d="M245.1,185.9v-9.3h1.8l3.8,6.2v-6.2h1.7v9.3h-1.9l-3.8-6.1v6.1h-1.7Z" fill="#ed1c24" />
  <path d="M246.3,228.9v-9.3h1.9v9.3h-1.9Z" fill="#ed1c24" />
  <path d="M90.1,113.2v-1.7l4.9-6h-4.3v-1.6h6.8v1.5l-5.1,6.3h5.3v1.6h-7.6Z" fill="#ed1c24" />
</svg>